<svg width="640" height="480" xmlns="http://www.w3.org/2000/svg">
 <!-- Created with SVG-edit - http://svg-edit.googlecode.com/ -->
 <defs>
  <filter id="svg_14_blur">
   <feGaussianBlur stdDeviation="1.7" in="SourceGraphic"/>
  </filter>
  <filter id="svg_17_blur">
   <feGaussianBlur stdDeviation="3" in="SourceGraphic"/>
  </filter>
 </defs>
 <g>
  <title>Layer 1</title>
  <path d="m186,87c-3,0 -7,-1 -11,-1c-2,0 -7,-1 -13,-1c-4,0 -6,0 -10,0c-4,0 -5,0 -9,0c-2,0 -3.823746,0.486259 -6,1c-2.919754,0.689262 -5.464462,-3.535538 -9,0c-0.707108,0.707108 -3.150986,-0.565376 -5,2c-0.584709,0.811241 -3.186005,1.692551 -5,3c-1.14727,0.826904 -2.85273,3.173096 -4,4c-1.813995,1.307449 -2,3 -2,4c0,2 -1,4 -1,6c0,2 -1.689262,3.080254 -1,6c0.513741,2.176254 1.346191,7.70546 3,10c1.307449,1.813995 1.851234,4.133759 3,9c0.513741,2.176254 5.310738,6.080246 6,9c1.027489,4.352509 3,5 5,7c1,1 5.386871,5.917603 8,7c0.923874,0.38269 3.418854,1.418854 5,3c1.581146,1.581146 5.384583,1.211792 6,2c2.537415,3.249847 5,1 7,1c2,0 4,0 7,0c6,0 7.937958,-1.498291 14,-2c2.989777,-0.247437 11.412079,0.031448 15,-2c1.230652,-0.696777 5.963943,-2.085571 13,-5c4.97525,-2.060806 10.380737,-4.522217 13,-7c3.632263,-3.436081 4.173096,-4.852737 5,-6c1.307449,-1.813995 2,-4 2,-5c0,-1 0.513748,-2.823746 0,-5c-0.459503,-1.946495 -0.917603,-5.386871 -2,-8c-0.765366,-1.847755 0.430496,-4.133003 -1,-8c-0.775803,-2.097176 -2.458801,-5.693436 -3,-7c-0.38269,-0.923882 -1.458801,-1.693436 -2,-3c-0.38269,-0.923882 -2.186005,-2.692551 -4,-4c-1.147263,-0.826904 -3,-3 -5,-4c-2,-1 -7.796997,-5.2565 -9,-6c-2.689987,-1.662506 -5.504242,-1.035515 -10,-4c-1.180649,-0.778511 -2.823746,-2.486259 -5,-3c-1.946503,-0.459503 -2.076126,-0.617317 -3,-1c-1.306564,-0.541199 -2,-1 -4,-2l-1,0l-1,0" id="svg_1" stroke-width="5" stroke="#000000" fill="none"/>
  <path d="m402,84c-1,0 -2,0 -5,0c-2,0 -5,0 -7,0c-3,0 -5,0 -6,0c-1,0 -3,0 -5,0c-2,0 -5,0 -8,0c-2,0 -6,1 -9,1c-3,0 -5.946716,0.498741 -13,1c-0.997498,0.070892 -4.026764,0.770248 -5,1c-4.352509,1.027489 -5.173096,2.85273 -6,4c-1.307465,1.813995 -2.830566,4.377518 -4,6c-3.698029,5.130745 -9.190277,3.881523 -11,7c-1.122345,1.933998 -4.770233,6.026749 -5,7c-0.513733,2.176254 -1.234619,4.152245 -2,6c-1.082397,2.613129 -4,6 -4,8c0,4 -1,5 -1,7c0,1 0,3 0,5c0,2 0.234619,3.152237 1,5c0.541199,1.306564 4.474274,5.149353 5,6c1.175568,1.902115 3.309998,1.337494 6,3c1.203003,0.7435 5.963287,3.160416 10,4c5.955322,1.238632 11.082642,1.694458 19,4c3.036163,0.88414 10,2 14,2c2,0 4.878571,1.493454 8,2c0.987091,0.160187 4,-1 6,-1c1,0 4,0 7,0c2,0 13.025208,-1.881332 18,-3c4.022644,-0.904556 7.082642,-1.694458 15,-4c3.036163,-0.88414 10.108856,-3.199203 13,-4c5.619385,-1.556473 5.21167,-4.714127 8,-7c1.093658,-0.896591 3,-3 3,-4c0,-3 2.102936,-5.597397 0,-9c-1.175568,-1.902115 -1.770233,-4.026749 -2,-5c-0.513733,-2.176254 -1.789856,-3.078438 -3,-6c-0.855713,-2.065857 -7.132996,-6.569504 -11,-8c-8.388702,-3.10318 -11.087433,-5.793938 -16,-8c-2.039825,-0.916016 -5,-2 -5,-3c0,-1 -0.152252,-1.234634 -2,-2c-1.306549,-0.541199 -1.186005,-1.692551 -3,-3c-1.147278,-0.826904 -2.292908,-1.292892 -3,-2c-0.707092,-0.707108 -0.61731,-1.076118 -1,-2c-0.541199,-1.306564 -1,-2 -1,-3c0,-1 0,-2 -1,-2l-2,0l-1,0l0,-1" id="svg_2" stroke-width="5" stroke="#000000" fill="none"/>
  <path d="m155,264c0,1 0.458801,1.693451 1,3c0.38269,0.923889 0.458801,1.693451 1,3c0.38269,0.923889 0.292892,1.292908 1,2c0.707108,0.707092 1,2 2,3c1,1 1.292892,1.292908 2,2c1.414215,1.414215 2,3 5,6c2,2 5.881516,5.190277 9,7c5.801987,3.367035 9.767273,2.056702 13,6c0.633987,0.773346 5.097885,3.824432 7,5c4.25325,2.628662 6,4 9,6c3,2 5.039856,2.923981 7,4c5.11145,2.805908 6.080246,3.31073 9,4c2.176254,0.513733 2.878555,2.493469 6,3c0.987091,0.160187 2.080246,0.31073 5,1c2.176254,0.513733 4.873535,1.308502 7,2c5.784607,1.881073 11,2 14,2c3,0 8,0 9,0c2,0 4.080261,0.68927 7,0c2.176239,-0.513733 6,-2 9,-3c12,-4 13.880493,-4.251953 20,-7c4.912567,-2.206055 7.372009,-3.385101 11,-6c5.736359,-4.134521 8,-7 13,-12c3,-3 7.839813,-8.012909 8,-9c1.013092,-6.242889 2.61731,-7.076111 3,-8c1.082397,-2.613129 2,-3 2,-4c0,-2 0,-4 0,-7l1,-1l0,-1" id="svg_3" stroke-width="5" stroke="#000000" fill="none"/>
  <path d="m386,290c2,-1 3.823761,-1.486267 6,-2c0.973236,-0.229767 5.15097,0.565369 7,-2c1.169434,-1.622498 2.705475,-2.346191 5,-4c1.813995,-1.307465 4.692535,-2.186005 6,-4c0.826904,-1.147278 3.234619,-2.152252 4,-4c0.541199,-1.306549 4.15097,-1.434631 6,-4c0.584717,-0.811249 4.376404,-2.080322 6,-6c0.38269,-0.923889 1.852722,-2.173096 3,-3c1.813995,-1.307434 2.292908,-1.292908 3,-2c0.707092,-0.707092 0,-2 0,-3c0,-1 1.95517,-1.549149 3,-5c0.579559,-1.914185 -0.068359,-4.07341 1,-5c3.777283,-3.276016 4,-4 4,-7c0,-1 -1.051453,-2.298691 0,-4c1.175568,-1.902115 3,-2 3,-4c0,-1 1,-4 2,-6c2,-4 2.234619,-6.152237 3,-8c0.541199,-1.306564 1.621796,-4.036087 2,-6c1.018372,-5.287994 2.540497,-7.053497 3,-9c0.513733,-2.176254 1.486267,-5.823746 2,-8c0.919006,-3.89299 -0.320374,-7.025818 0,-9c0.506531,-3.121445 1.308502,-5.873535 2,-8c1.881073,-5.784607 2,-9 4,-12c2,-3 5.877655,-9.06601 7,-11c3.619446,-6.236954 5.094788,-8.669952 9,-13c3.348694,-3.712982 8.092682,-7.911423 10,-10c5.266724,-5.767265 6.31073,-9.534927 8,-11c2.388977,-2.07193 8,-5 11,-7c3,-2 5.504272,-2.035515 10,-5c1.180664,-0.778511 3.69342,-2.458801 5,-3c0.923889,-0.382683 2.69342,-0.458801 4,-1c0.923889,-0.382683 3,0 4,0c1,0 2.076111,-0.382683 3,0c1.30658,0.541199 3.298706,0.821075 5,4c0.471863,0.881676 3.173096,2.85273 4,4c2.614929,3.627983 3.346191,5.70546 5,8c1.307434,1.813995 4.692566,6.186005 6,8c1.653809,2.29454 3.346191,3.70546 5,6c1.307434,1.813995 4.770264,7.026749 5,8c0.513733,2.176254 3.376404,2.080307 5,6c0.38269,0.923874 1.710205,3.042908 2,4c1.044861,3.450851 2.418884,5.418854 4,7c1.581116,1.581146 3.61731,6.076126 4,7c0.541199,1.306564 0.714111,3.21167 3,6c0.896606,1.093674 1.852722,4.173096 3,5c1.813965,1.307449 2.955139,2.549149 4,6c0.57959,1.914185 0,4 2,8c1,2 1.917603,3.386871 3,6c0.38269,0.923874 0.493469,2.878555 1,6c0.48053,2.961258 0.540466,7.053497 1,9c0.513733,2.176254 1.498718,2.946716 2,10c0.141785,1.994965 0,4 0,7c0,5 0,8 0,11c0,2 0.51947,5.038742 1,8c0.506531,3.121445 1,6 1,10c0,2 0,8 0,11c0,2 0,5 0,8c0,2 -2,9 -2,11c0,2 -0.493469,4.878571 -1,8c-0.48053,2.961273 -1.787354,7.007538 -2,10c-0.501282,7.053284 -2.955139,9.549164 -4,13c-0.869324,2.871277 -1.493469,7.878571 -2,11c-1.121277,6.909607 1.108337,10.25058 -1,17c-0.666748,2.134369 -0.533752,4.096619 -2,10c-0.762268,3.069031 -1.755615,8.014984 -2,10c-0.503784,4.092224 -3.46875,5.539764 -5,13c-0.20105,0.979584 -3.418884,3.256592 -5,8c-0.316223,0.948669 -2.386902,4.917603 -5,6c-1.847778,0.765381 -3.937988,1.498291 -10,2c-1.993164,0.164948 -5,0 -10,0c-3,0 -5,0 -8,0c-3,0 -6,0 -7,0c-2,0 -6.585815,1.414215 -8,0c-0.707092,-0.707092 -1.372009,-0.385101 -5,-3c-1.147278,-0.826904 -2.486938,-1.080505 -5,-3c-2.865356,-2.188538 -4.796265,-3.161255 -8,-7c-1.432739,-1.716736 -6,-6 -8,-8c-5,-5 -6.228851,-6.729614 -11,-11c-2.107544,-1.886353 -4.710205,-5.042908 -5,-6c-1.04483,-3.450836 -2.337494,-3.309998 -4,-6c-0.7435,-1.203003 -4.103394,-3.906342 -5,-5c-2.285889,-2.78833 -2.309998,-3.337494 -5,-5c-2.406006,-1.487 -4,-4 -4,-5c0,-2 -2.371338,-2.746735 -5,-7c-1.175568,-1.9021 -1.852722,-3.173096 -3,-4c-1.813995,-1.307465 -2,-3 -4,-5c-1,-1 -1.705475,-3.346191 -4,-5c-1.813995,-1.307465 -2.763947,-3.763947 -5,-6c-2.236053,-2.236053 -7.906342,-4.103394 -9,-5c-2.78833,-2.285889 -5.309998,-2.337494 -8,-4c-2.406006,-1.487 -6.014984,-2.755646 -8,-3c-4.092224,-0.503784 -4.693451,-2.458801 -6,-3c-2.771637,-1.148041 -3.693451,-0.458801 -5,-1c-1.847748,-0.765381 -3,0 -4,0c-1,0 -2,0 -3,0c-1,0 -3,0 -4,0c-1,0 -1,-1 -3,-1c-1,0 -2,0 -4,0c-1,0 -2,-1 -4,-1l-1,0l-1,0" id="svg_4" stroke-width="5" stroke="#000000" fill="none"/>
  <text stroke="#000000" transform="matrix(17.6505 0 0 9.70583 -8077.09 -1583.05)" xml:space="preserve" text-anchor="middle" font-family="serif" font-size="10" id="svg_6" y="184.636299" x="486.620461" stroke-linecap="null" stroke-linejoin="null" stroke-dasharray="null" stroke-width="0" fill="#000000">v</text>
  <text stroke="#000000" transform="matrix(12.25 0 0 2.41667 -5735 -344.417)" xml:space="preserve" text-anchor="middle" font-family="serif" font-size="10" id="svg_7" y="239" x="510" stroke-linecap="null" stroke-linejoin="null" stroke-dasharray="null" stroke-width="0" fill="#000000">e</text>
  <text stroke="#000000" transform="matrix(22.2995 0 0 4.47083 -3909.71 -1326.68)" xml:space="preserve" text-anchor="middle" font-family="serif" font-size="10" id="svg_9" y="358.225536" x="198.601184" stroke-linecap="null" stroke-linejoin="null" stroke-dasharray="null" stroke-width="0" fill="#000000">k</text>
  <text stroke="#000000" transform="matrix(13 0 0 2.75 -2334 -593.25)" xml:space="preserve" text-anchor="middle" font-family="serif" font-size="10" id="svg_10" y="326.090909" x="220.153846" stroke-linecap="null" stroke-linejoin="null" stroke-dasharray="null" stroke-width="0" fill="#000000">t</text>
  <text stroke="#000000" transform="matrix(26.75 0 0 4.83333 -5871 -1468.17)" xml:space="preserve" text-anchor="middle" font-family="serif" font-size="10" id="svg_11" y="393" x="230" stroke-linecap="null" stroke-linejoin="null" stroke-dasharray="null" stroke-width="0" fill="#ff00ff"/>
  <text stroke="#000000" transform="matrix(22.2 0 0 4.83333 -5734.6 -1452.83)" xml:space="preserve" text-anchor="middle" font-family="serif" font-size="10" id="svg_12" y="369.965518" x="282.234234" stroke-linecap="null" stroke-linejoin="null" stroke-dasharray="null" stroke-width="0" fill="#000000">o</text>
  <path filter="url(#svg_14_blur)" d="m521,350c0,0 1.173096,1.852722 2,3c1.307434,1.813995 0.234619,3.152252 1,5c1.082397,2.613129 3.486267,3.823761 4,6c0.459534,1.946503 1.224182,5.902832 2,8c1.430481,3.867004 3.292908,9.292908 4,10c0.707092,0.707092 0,2 0,3c0,2 1,4 1,5l0,2l0,1l1,0" id="svg_14" stroke-linecap="null" stroke-linejoin="null" stroke-dasharray="null" stroke-width="0" stroke="#000000" fill="none"/>
  <polyline id="svg_15" points="374,427 374,426 " stroke-linecap="round" stroke-linejoin="null" stroke-dasharray="null" stroke-width="0" stroke="#000000" fill="none"/>
  <path filter="url(#svg_17_blur)" d="m322,366c0,1 -0.38269,2.076111 0,3c0.541199,1.306549 1,2 1,3c0,2 0,4 0,6c0,2 0,3 0,5c0,2 0,4 0,6c0,1 0,2 0,4c0,2 0,3 0,5c0,2 0,4 0,8c0,2 0,3 0,5c0,1 0,2 0,3c0,2 0,3 0,4l0,2l0,1l0,1" id="svg_17" stroke-linecap="null" stroke-linejoin="null" stroke-dasharray="null" stroke-width="0" stroke="#000000" fill="none"/>
  <path d="m126,355c0,1 2,3 3,5c1,2 2.789856,4.07843 4,7c0.855713,2.065857 2.789856,3.07843 4,6c0.855713,2.065857 1.337494,5.309998 3,8c1.487,2.406006 2,4 3,7c1,3 2,5 3,7c2,4 2.95517,4.549164 4,8c0.28978,0.957092 -0.765366,5.152252 0,7c0.541199,1.306549 1,3 1,4l0,2l0,1" id="svg_18" stroke-linecap="null" stroke-linejoin="null" stroke-dasharray="null" stroke-width="0" stroke="#000000" fill="none"/>
  <path d="m62,353c1,-1 2,-2 3,-3l1,0" id="svg_19" stroke-linecap="null" stroke-linejoin="null" stroke-dasharray="null" stroke-width="0" stroke="#000000" fill="none"/>
  <path d="m239,353c0,1 0,3 0,5c0,1 0,3 0,6c0,2 0,5 0,7c0,2 0,3 0,6c0,1 0.765366,4.152252 0,6c-0.541199,1.306549 -1,3 -1,4c0,2 0,3 0,5c0,1 0,2 0,4c0,1 -0.493454,2.878571 -1,6c-0.320358,1.974182 -1,3 -1,4c0,1 0,2 -2,3c-2,1 -5.943665,3.188354 -9,4c-4.928207,1.308746 -10,1 -17,1c-4,0 -10,0 -15,0c-16,0 -20,0 -26,0c-4,0 -9,0 -11,0c-2,0 -5.486252,-0.823761 -6,-3c-1.148758,-4.866241 0,-8 0,-12c0,-4 -0.44902,-14.020203 0,-19c1.004059,-11.135162 2.388184,-14.7771 8,-25c2.152039,-3.920288 4.187988,-9.026001 9,-12c10.759979,-6.650024 17.937958,-4.498291 24,-5c4.982956,-0.412415 17.066147,0.662323 23,2c7.101898,1.600983 12.215393,4.118927 18,6c6.379379,2.074463 18.504318,7.593994 23,10c2.493744,1.334625 4.558197,3.519287 8,6c1.813995,1.307465 4,4 6,4l0,1l1,0" id="svg_20" stroke-linecap="null" stroke-linejoin="null" stroke-dasharray="null" stroke-width="0" stroke="#000000" fill="none"/>
  <path d="m273,384c1,0 15.586761,-5.760162 31,37c1.017303,2.822235 0,4 1,6l1,1" id="svg_21" stroke-linecap="null" stroke-linejoin="null" stroke-dasharray="null" stroke-width="0" stroke="#000000" fill="#0000ff"/>
  <path stroke="#000000" d="m336,333c0,2.083344 1.920532,4.325226 3.111115,6.25c3.367462,5.444031 11.447723,6.303802 12.444427,10.416656c1.575897,6.502991 3.703094,8.086548 9.333344,14.583344c3.49173,4.029144 13.98822,6.057861 15.555573,14.583344c0.760193,4.135437 3.111084,8.333313 6.222198,12.5c3.111115,4.166656 9.333344,8.333313 9.333344,12.5l0,2.083313l0,2.083344" id="svg_22" stroke-linecap="null" stroke-linejoin="null" stroke-dasharray="null" stroke-width="0" fill="none"/>
  <path d="m322,376c1,0 1.173096,1.852722 2,3c1.307465,1.813995 1.540497,4.053497 2,6c0.513733,2.176239 5,5 5,8c0,2 3.346191,3.705475 5,6c1.307465,1.813995 1.770233,3.026764 2,4c0.513733,2.176239 1.418854,3.418854 3,5c1.581146,1.581146 2.770233,3.026764 3,4c0.513733,2.176239 4.234619,6.152252 5,8c1.082397,2.613129 3.95517,3.549164 5,7c0.289795,0.957092 0,0 0,-1c0,-2 -1.486267,-2.823761 -2,-5c-0.459503,-1.946503 0,-3 -2,-5c-1,-1 -2.486267,-2.823761 -3,-5c-0.229767,-0.973236 -2,-3 -3,-4c-1,-1 -2,-3 -3,-4l-4,-5" id="svg_23" stroke-linecap="null" stroke-linejoin="null" stroke-dasharray="null" stroke-width="0" stroke="#000000" fill="none"/>
  <path d="m342,380c0,-1 0,-2 0,-4c0,-2 0.877655,-5.06601 2,-7c1.809723,-3.118469 3.558197,-5.519287 7,-8c3.627991,-2.614899 8.94342,-4.147736 14,-6c5.93866,-2.175385 11.977966,-4.499786 29,-5c0.999573,-0.029388 41.234619,27.152252 42,29c0.541199,1.306549 1,3 1,5c0,2 -0.418854,3.418854 -2,5c-1.581146,1.581146 -0.881531,3.190277 -4,5c-1.93399,1.122345 -7.176971,2.345184 -12,4c-4.230072,1.451385 -6.976593,2.499756 -23,3c-5.99707,0.187225 -16.009735,0.197083 -18,0c-15.222626,-1.507324 -20.878571,-4.493469 -24,-5c-1.974182,-0.320374 -2,-1 -2,0c0,1 0.418854,2.418854 2,4c1.581146,1.581146 7.077026,3.782257 13,6c12.174561,4.558533 18.159271,7.610657 21,9c3.238922,1.584106 13,5 16,6l6,2l2,1" id="svg_24" stroke-linecap="null" stroke-linejoin="null" stroke-dasharray="null" stroke-width="0" stroke="#000000" fill="none"/>
  <polyline stroke="#000000" id="svg_26" points="366 359 366 359" stroke-linecap="round" stroke-linejoin="null" stroke-dasharray="null" stroke-width="0" fill="none"/>
  <path stroke="#000000" d="m429,379c-13.733337,1.657135 -29.077728,0.252289 -34.333344,3.31427c-3.716217,2.165161 5.841125,2.443085 0,3.314301c-13.061066,1.94809 -13.733307,4.285004 -13.733307,6.628571c0,2.343567 -17.072388,3.022247 -20.600006,6.628571c-4.733002,4.83844 -6.74054,7.808472 -13.733337,16.571442c-3.89563,4.881714 -3.150452,6.120575 -6.866669,8.285706c-2.627808,1.531006 -6.866669,4.971436 -6.866669,8.285706l0,1.657135l-6.866669,1.657166l0,1.657135" id="svg_27" stroke-linecap="null" stroke-linejoin="null" stroke-dasharray="null" stroke-width="0" fill="none"/>
  <text stroke="#000000" transform="matrix(10.75 0 0 4.25 -5148 -1134.25)" xml:space="preserve" text-anchor="middle" font-family="serif" font-size="10" id="svg_29" y="354.058824" x="528.697674" stroke-linecap="null" stroke-linejoin="null" stroke-dasharray="null" stroke-width="0" fill="#000000">r</text>
 </g>
</svg>